<svg xmlns="http://www.w3.org/2000/svg" xmlns:xlink="http://www.w3.org/1999/xlink" viewBox="0 0 622.1 656.69"><defs><style>.cls-1{fill:#cd246a;}.cls-2,.cls-28,.cls-3,.cls-4,.cls-5,.cls-6{fill:none;stroke-miterlimit:10;}.cls-2,.cls-3,.cls-4,.cls-5,.cls-6{stroke-width:3px;}.cls-2{stroke:url(#linear-gradient);}.cls-3{stroke:url(#linear-gradient-2);}.cls-4{stroke:url(#linear-gradient-3);}.cls-5{stroke:url(#linear-gradient-4);}.cls-6{stroke:url(#linear-gradient-5);}.cls-7{fill:url(#linear-gradient-6);}.cls-8{fill:url(#linear-gradient-7);}.cls-9{fill:url(#linear-gradient-8);}.cls-10{fill:url(#New_Gradient_Swatch_1);}.cls-11{fill:url(#New_Gradient_Swatch_1-2);}.cls-12{fill:url(#linear-gradient-9);}.cls-13{fill:url(#linear-gradient-10);}.cls-14{fill:url(#linear-gradient-11);}.cls-15{fill:url(#linear-gradient-12);}.cls-16{fill:url(#linear-gradient-13);}.cls-17{fill:url(#linear-gradient-14);}.cls-18{fill:url(#New_Gradient_Swatch_3);}.cls-19{fill:#9b3783;}.cls-20{fill:#681446;}.cls-21{fill:url(#linear-gradient-15);}.cls-22{fill:url(#linear-gradient-16);}.cls-23{fill:url(#linear-gradient-17);}.cls-24{fill:url(#linear-gradient-18);}.cls-25{fill:url(#linear-gradient-19);}.cls-26{fill:url(#linear-gradient-20);}.cls-27{fill:url(#linear-gradient-21);}.cls-28{stroke:#d1c9d1;}.cls-29{fill:url(#New_Gradient_Swatch_3-2);}.cls-30{fill:#9f1d64;}.cls-31{fill:url(#linear-gradient-22);}.cls-32{fill:url(#linear-gradient-23);}.cls-33{fill:url(#linear-gradient-24);}.cls-34{fill:url(#linear-gradient-25);}.cls-35{fill:url(#linear-gradient-26);}.cls-36{fill:url(#linear-gradient-27);}.cls-37{fill:url(#linear-gradient-28);}.cls-38{fill:url(#linear-gradient-29);}.cls-39{fill:url(#New_Gradient_Swatch_3-3);}.cls-40{fill:url(#New_Gradient_Swatch_3-4);}.cls-41{fill:url(#linear-gradient-30);}.cls-42{fill:url(#linear-gradient-31);}.cls-43{opacity:0.8;fill:url(#linear-gradient-32);}</style><linearGradient id="linear-gradient" x1="174.42" y1="563.12" x2="338.55" y2="563.12" gradientUnits="userSpaceOnUse"><stop offset="0" stop-color="#ee2a7b" stop-opacity="0"/><stop offset="0.15" stop-color="#ee2a7b" stop-opacity="0.24"/><stop offset="0.31" stop-color="#ee2a7b" stop-opacity="0.46"/><stop offset="0.46" stop-color="#ee2a7b" stop-opacity="0.63"/><stop offset="0.61" stop-color="#ee2a7b" stop-opacity="0.77"/><stop offset="0.75" stop-color="#ee2a7b" stop-opacity="0.87"/><stop offset="0.89" stop-color="#ee2a7b" stop-opacity="0.93"/><stop offset="1" stop-color="#ee2a7b" stop-opacity="0.95"/></linearGradient><linearGradient id="linear-gradient-2" x1="10.57" y1="277.18" x2="273.77" y2="277.18" xlink:href="#linear-gradient"/><linearGradient id="linear-gradient-3" x1="192.53" y1="74.2" x2="192.53" y2="365.63" xlink:href="#linear-gradient"/><linearGradient id="linear-gradient-4" x1="532.43" y1="162.98" x2="532.43" y2="392.94" xlink:href="#linear-gradient"/><linearGradient id="linear-gradient-5" x1="423.29" y1="541.29" x2="588.41" y2="541.29" gradientUnits="userSpaceOnUse"><stop offset="0" stop-color="#ee2a7b" stop-opacity="0.95"/><stop offset="0.11" stop-color="#ee2a7b" stop-opacity="0.93"/><stop offset="0.25" stop-color="#ee2a7b" stop-opacity="0.87"/><stop offset="0.39" stop-color="#ee2a7b" stop-opacity="0.77"/><stop offset="0.54" stop-color="#ee2a7b" stop-opacity="0.63"/><stop offset="0.69" stop-color="#ee2a7b" stop-opacity="0.46"/><stop offset="0.85" stop-color="#ee2a7b" stop-opacity="0.24"/><stop offset="1" stop-color="#ee2a7b" stop-opacity="0"/></linearGradient><linearGradient id="linear-gradient-6" x1="575.3" y1="365.25" x2="24.49" y2="365.25" gradientUnits="userSpaceOnUse"><stop offset="0" stop-color="#e6e7e8"/><stop offset="0.14" stop-color="#c4c6c7"/><stop offset="0.31" stop-color="#a1a2a5"/><stop offset="0.4" stop-color="#939598"/><stop offset="0.4" stop-color="#949699"/><stop offset="0.42" stop-color="#afb1b3"/><stop offset="0.45" stop-color="#c2c4c5"/><stop offset="0.48" stop-color="#cdcfd0"/><stop offset="0.5" stop-color="#d1d3d4"/><stop offset="0.64" stop-color="#c6c8c9"/><stop offset="1" stop-color="#a7a9ac"/></linearGradient><linearGradient id="linear-gradient-7" x1="193.62" y1="238.4" x2="613.02" y2="227.86" xlink:href="#linear-gradient-6"/><linearGradient id="linear-gradient-8" x1="215.17" y1="231.61" x2="472.11" y2="231.61" gradientUnits="userSpaceOnUse"><stop offset="0" stop-color="#e6e7e8"/><stop offset="0.07" stop-color="#e0e1e2"/><stop offset="0.28" stop-color="#d5d7d8"/><stop offset="0.5" stop-color="#d1d3d4"/><stop offset="1" stop-color="#a7a9ac"/></linearGradient><linearGradient id="New_Gradient_Swatch_1" x1="275.26" y1="405.73" x2="305.47" y2="349.88" gradientUnits="userSpaceOnUse"><stop offset="0" stop-color="#991c61"/><stop offset="0.09" stop-color="#ae1e67"/><stop offset="0.11" stop-color="#ba206b"/><stop offset="0.18" stop-color="#e02777"/><stop offset="0.22" stop-color="#ee2a7b"/><stop offset="0.25" stop-color="#d52573"/><stop offset="0.28" stop-color="#c2226e"/><stop offset="0.31" stop-color="#b7206a"/><stop offset="0.34" stop-color="#b31f69"/><stop offset="0.5" stop-color="#b31f69"/><stop offset="0.63" stop-color="#ee2a7b"/><stop offset="0.71" stop-color="#b31f69"/><stop offset="0.8" stop-color="#9e1f63"/><stop offset="0.93" stop-color="#ee2a7b"/><stop offset="0.99" stop-color="#9e1f63"/></linearGradient><linearGradient id="New_Gradient_Swatch_1-2" x1="214.03" y1="355.32" x2="296.22" y2="354.27" xlink:href="#New_Gradient_Swatch_1"/><linearGradient id="linear-gradient-9" x1="322.47" y1="299.5" x2="206.75" y2="515.73" gradientUnits="userSpaceOnUse"><stop offset="0.02" stop-color="#ff368c"/><stop offset="0.61" stop-color="#ce2582"/><stop offset="0.76" stop-color="#b31f69"/><stop offset="0.86" stop-color="#af1f68"/><stop offset="0.94" stop-color="#a41d64"/><stop offset="1" stop-color="#991c61"/></linearGradient><linearGradient id="linear-gradient-10" x1="159.9" y1="504.45" x2="187.65" y2="546.25" gradientUnits="userSpaceOnUse"><stop offset="0" stop-color="#808285"/><stop offset="0.05" stop-color="#848689"/><stop offset="0.27" stop-color="#8f9194"/><stop offset="0.5" stop-color="#939598"/><stop offset="1" stop-color="#a7a9ac"/></linearGradient><linearGradient id="linear-gradient-11" x1="193.37" y1="482.23" x2="221.12" y2="524.03" xlink:href="#linear-gradient-10"/><linearGradient id="linear-gradient-12" x1="224.32" y1="461.68" x2="252.07" y2="503.48" xlink:href="#linear-gradient-10"/><linearGradient id="linear-gradient-13" x1="256.8" y1="440.12" x2="284.55" y2="481.92" xlink:href="#linear-gradient-10"/><linearGradient id="linear-gradient-14" x1="123.37" y1="528.69" x2="151.12" y2="570.49" xlink:href="#linear-gradient-10"/><linearGradient id="New_Gradient_Swatch_3" x1="90.85" y1="452.77" x2="303.53" y2="452.77" gradientUnits="userSpaceOnUse"><stop offset="0" stop-color="#991c61"/><stop offset="0.12" stop-color="#a41d64"/><stop offset="0.3" stop-color="#af1f68"/><stop offset="0.5" stop-color="#b31f69"/><stop offset="1" stop-color="#ce2582"/></linearGradient><linearGradient id="linear-gradient-15" x1="217.14" y1="462.24" x2="230.84" y2="482.26" xlink:href="#linear-gradient-10"/><linearGradient id="linear-gradient-16" x1="154.21" y1="478.48" x2="303.53" y2="478.48" xlink:href="#linear-gradient-10"/><linearGradient id="linear-gradient-17" x1="152.28" y1="519.7" x2="372.75" y2="509.36" xlink:href="#linear-gradient-10"/><linearGradient id="linear-gradient-18" x1="137.2" y1="504.81" x2="370.21" y2="493.88" xlink:href="#linear-gradient-10"/><linearGradient id="linear-gradient-19" x1="129.47" y1="489.37" x2="343.54" y2="479.33" xlink:href="#linear-gradient-10"/><linearGradient id="linear-gradient-20" x1="106.56" y1="473.78" x2="337.19" y2="462.96" xlink:href="#linear-gradient-10"/><linearGradient id="linear-gradient-21" x1="104.84" y1="456.4" x2="318.07" y2="446.4" xlink:href="#linear-gradient-10"/><linearGradient id="New_Gradient_Swatch_3-2" x1="186.91" y1="411.36" x2="237.27" y2="411.36" xlink:href="#New_Gradient_Swatch_3"/><linearGradient id="linear-gradient-22" x1="167.17" y1="330" x2="191.18" y2="359.55" xlink:href="#linear-gradient-8"/><linearGradient id="linear-gradient-23" x1="184.12" y1="316.23" x2="208.13" y2="345.78" xlink:href="#linear-gradient-8"/><linearGradient id="linear-gradient-24" x1="183.86" y1="316.44" x2="207.87" y2="345.99" xlink:href="#linear-gradient-8"/><linearGradient id="linear-gradient-25" x1="211.46" y1="334.02" x2="188.83" y2="385.74" xlink:href="#linear-gradient-8"/><linearGradient id="linear-gradient-26" x1="139.17" y1="362.54" x2="153.52" y2="362.54" xlink:href="#linear-gradient-10"/><linearGradient id="linear-gradient-27" x1="151.64" y1="379.39" x2="170.06" y2="379.39" xlink:href="#linear-gradient-10"/><linearGradient id="linear-gradient-28" x1="153.49" y1="397.15" x2="194.83" y2="397.15" xlink:href="#linear-gradient-10"/><linearGradient id="linear-gradient-29" x1="139.17" y1="398.82" x2="189.01" y2="398.82" xlink:href="#linear-gradient-8"/><linearGradient id="New_Gradient_Swatch_3-3" x1="187.23" y1="440.34" x2="237.27" y2="440.34" xlink:href="#New_Gradient_Swatch_3"/><linearGradient id="New_Gradient_Swatch_3-4" x1="137.03" y1="440.34" x2="187.4" y2="440.34" xlink:href="#New_Gradient_Swatch_3"/><linearGradient id="linear-gradient-30" x1="349.04" y1="180.42" x2="351.15" y2="224.68" xlink:href="#New_Gradient_Swatch_1"/><linearGradient id="linear-gradient-31" x1="267.88" y1="230.32" x2="435.52" y2="230.32" xlink:href="#New_Gradient_Swatch_1"/><linearGradient id="linear-gradient-32" x1="351.7" y1="-3.04" x2="351.7" y2="251.51" gradientUnits="userSpaceOnUse"><stop offset="0.31" stop-color="#ee2a7b" stop-opacity="0"/><stop offset="0.38" stop-color="#ee2a7b" stop-opacity="0.06"/><stop offset="0.52" stop-color="#ee2a7b" stop-opacity="0.23"/><stop offset="0.71" stop-color="#ee2a7b" stop-opacity="0.5"/><stop offset="0.95" stop-color="#ee2a7b" stop-opacity="0.87"/><stop offset="1" stop-color="#ee2a7b" stop-opacity="0.95"/></linearGradient></defs><g id="Layer_2" data-name="Layer 2"><g id="Layer_2-2" data-name="Layer 2"><path class="cls-1" d="M177.22,639.49c4.65,2.69,4.67,7.06.06,9.74s-12.17,2.69-16.82,0-4.67-7.05-.05-9.74S172.57,636.81,177.22,639.49Zm-15.34,8.92a15.38,15.38,0,0,0,14,0c3.84-2.23,3.82-5.86-.05-8.1a15.41,15.41,0,0,0-14,0c-3.84,2.23-3.82,5.86,0,8.09"/><path class="cls-2" d="M337.81,485.69l-94.08,53.24a7.9,7.9,0,0,0,.09,13.8l30.53,16.73a7.89,7.89,0,0,1,.15,13.76l-99.33,57.34"/><path class="cls-1" d="M20.26,228.07c4.65,2.69,4.68,7.06,0,9.74s-12.16,2.68-16.8,0-4.68-7.05-.07-9.74S15.61,225.39,20.26,228.07ZM4.91,237a15.41,15.41,0,0,0,14,0c3.84-2.23,3.83-5.86,0-8.1a15.46,15.46,0,0,0-14,0C1,231.12,1,234.76,4.91,237"/><path class="cls-3" d="M11.32,232.72l134.51,77.66a38.94,38.94,0,0,0,38.95,0l14.91-8.61a39,39,0,0,1,38.95,0L273,321.63"/><path class="cls-4" d="M106.3,75.5l106.4,61.44a9.68,9.68,0,0,1,0,16.77l-31.4,18.13a9.68,9.68,0,0,0,0,16.77l91.87,53.06a9.69,9.69,0,0,1,0,16.77l-91.69,52.93a9.69,9.69,0,0,0,.09,16.83l64.18,36.12"/><path class="cls-1" d="M115.62,70.09c5.17,3,5.2,7.84.06,10.83s-13.53,3-18.7,0-5.2-7.85-.06-10.83S110.45,67.1,115.62,70.09Zm-17.23,10c4.39,2.53,11.51,2.53,15.87,0s4.34-6.66-.05-9.2-11.51-2.53-15.87,0-4.34,6.66,0,9.2"/><path class="cls-1" d="M618.2,158.85c5.17,3,5.2,7.85.07,10.83s-13.54,3-18.71,0-5.2-7.84-.06-10.83S613,155.87,618.2,158.85Zm-17.23,10c4.39,2.54,11.51,2.54,15.87,0s4.34-6.65-.05-9.19-11.51-2.53-15.87,0-4.34,6.66.05,9.19"/><path class="cls-5" d="M456,391.64l77.51-43.54a10.27,10.27,0,0,0,.11-17.85l-29.43-17a10.28,10.28,0,0,1,0-17.8l90.11-52a10.28,10.28,0,0,0,0-17.8l-29.84-17.23a10.28,10.28,0,0,1-.1-17.74l44.57-26.4"/><path class="cls-1" d="M606.2,643.62c5.17,3,5.2,7.84.06,10.83s-13.52,3-18.7,0-5.2-7.84-.06-10.83S601,640.63,606.2,643.62Zm-17.23,10c4.39,2.53,11.52,2.53,15.87,0s4.34-6.66-.05-9.19-11.51-2.54-15.87,0-4.34,6.66.05,9.19"/><path class="cls-6" d="M587.66,644,430.49,553.21a11.39,11.39,0,0,1,0-19.73l86.75-50.08a11.4,11.4,0,0,0,0-19.74l-43.39-25.05"/><path class="cls-7" d="M490.81,237.52V416.25A18,18,0,0,1,481.74,432l-84.62,48.85a90.86,90.86,0,0,1-90.83,0L221.68,432a18,18,0,0,1-9.08-15.73V237.51A18,18,0,0,0,221.68,253l35.41,20.44,49.2,28.41a90.76,90.76,0,0,0,90.83,0l49.2-28.4L481.74,253A17.93,17.93,0,0,0,490.81,237.52Z"/><path class="cls-8" d="M490.81,240v.29a18,18,0,0,1-9.07,15.44l-35.42,20.45-49.2,28.4a90.89,90.89,0,0,1-90.83,0l-49.2-28.41-35.41-20.44a18,18,0,0,1-9.08-15.45v-.57a18,18,0,0,1,9.07-15.44l121-69.83a18.18,18.18,0,0,1,18.16,0l121,69.83A18,18,0,0,1,490.81,240Z"/><path class="cls-9" d="M490.81,237.23v.29A17.93,17.93,0,0,1,481.74,253l-35.42,20.45-49.2,28.4a90.79,90.79,0,0,1-90.83,0l-49.2-28.41L221.68,253a18,18,0,0,1-9.08-15.45v-.57a18,18,0,0,1,9.07-15.44l121-69.82a18.13,18.13,0,0,1,18.16,0l121,69.82A18,18,0,0,1,490.81,237.23Z"/><polygon class="cls-10" points="241.06 391.3 265.65 385.17 305.08 404.56 305.08 428.26 241.06 391.3"/><polygon class="cls-11" points="265.65 385.17 265.16 332.57 241.06 318.66 241.06 391.3 265.65 385.17"/><polygon class="cls-12" points="305.08 406 265.65 385.17 265.16 332.57 305.08 355.62 305.08 406"/><path class="cls-13" d="M195.68,546.05V504.49h-2.8v28.63l-49.72-28.7V480.1h-2.81v41.56c-1.93.26-3.34,1-3.34,1.89,0,1.1,2.12,2,4.75,2s4.75-.89,4.75-2c0-.89-1.42-1.63-3.35-1.89v-14l49.72,28.7v9.69c-1.94.26-3.35,1-3.35,1.89,0,1.1,2.13,2,4.75,2s4.75-.89,4.75-2C199,547.05,197.62,546.31,195.68,546.05Z"/><path class="cls-14" d="M230.27,525.52V484h-2.8v28.64l-49.72-28.71V459.56h-2.81v41.57c-1.93.25-3.34,1-3.34,1.89,0,1.1,2.12,2,4.75,2s4.75-.89,4.75-2c0-.89-1.42-1.64-3.35-1.89v-14l49.72,28.71v9.69c-1.94.25-3.35,1-3.35,1.89,0,1.1,2.13,2,4.75,2s4.75-.89,4.75-2C233.62,526.52,232.21,525.77,230.27,525.52Z"/><path class="cls-15" d="M260.61,504.06V462.49h-2.8v28.64l-49.72-28.71V438.1h-2.81v41.57c-1.93.25-3.34,1-3.34,1.89,0,1.1,2.12,2,4.75,2s4.75-.89,4.75-2c0-.89-1.42-1.64-3.35-1.89v-14l49.72,28.71v9.69c-1.94.25-3.35,1-3.35,1.89,0,1.1,2.13,2,4.75,2s4.75-.89,4.75-2C264,505.06,262.55,504.31,260.61,504.06Z"/><path class="cls-16" d="M296.37,487.44V445.87h-2.8V474.5l-49.72-28.7V421.48H241v41.57c-1.93.25-3.34,1-3.34,1.89,0,1.1,2.12,2,4.75,2s4.74-.89,4.74-2c0-.89-1.41-1.64-3.34-1.89V449l49.72,28.7v9.7c-1.94.25-3.35,1-3.35,1.89,0,1.1,2.13,2,4.75,2s4.75-.89,4.75-2C299.72,488.44,298.31,487.69,296.37,487.44Z"/><path class="cls-17" d="M156.69,566.59V525h-2.8v28.64L104.17,525V500.63h-2.81V542.2c-1.93.25-3.34,1-3.34,1.89,0,1.1,2.12,2,4.75,2s4.75-.89,4.75-2c0-.89-1.42-1.64-3.35-1.89v-14l49.72,28.71v9.69c-1.94.25-3.35,1-3.35,1.89,0,1.1,2.13,2,4.75,2s4.75-.89,4.75-2C160,567.59,158.63,566.84,156.69,566.59Z"/><path class="cls-18" d="M303.53,427.63l-15.17,8.76-128.6,74.24a27,27,0,0,1-13.5,3.61h0a27,27,0,0,1-13.5-3.61L98.53,490.87l-3.93-2.28a7.49,7.49,0,0,1,0-13l146-84.31Z"/><path class="cls-19" d="M90.85,499.63a4.73,4.73,0,0,0,0,.65l0,0Z"/><path class="cls-20" d="M303.53,427.63v17.51l-.41.24L159.76,528.14a25.57,25.57,0,0,1-4.07,1.92c-.39.15-.78.28-1.18.41a26.64,26.64,0,0,1-8.25,1.3h0a26.92,26.92,0,0,1-13.5-3.63l-38.15-22a7.37,7.37,0,0,1-3.71-5.84,4.73,4.73,0,0,1,0-.65V482.1a7.41,7.41,0,0,0,3.75,6.49l3.93,2.28,34.22,19.76a27,27,0,0,0,13.5,3.61h0a26.71,26.71,0,0,0,6.29-.74c.47-.11.93-.23,1.4-.37a26.27,26.27,0,0,0,5.81-2.5l118.67-68.51,9.93-5.73,14.76-8.53Z"/><path class="cls-21" d="M303.53,435.3v3l-148,85.45-.06,0a1.34,1.34,0,0,1-.64.15,1.53,1.53,0,0,1-.3,0,12.78,12.78,0,0,1-.31-2.63l.94-.54,147.68-85.26A1.39,1.39,0,0,1,303.53,435.3Z"/><path class="cls-22" d="M155.15,520.75a10.65,10.65,0,0,0,.31,3,4.58,4.58,0,0,0,.14.56,3.86,3.86,0,0,0,1.47,2.2,1.25,1.25,0,0,0,.63.22c.47,0,1.13-.4,2.25-1.21l.39-.27c1.85-1.3,3.79-2.41,5.67-3.48l1.38-.79q5.27-3.06,10.54-6.09l124.83-72.05.77,1.33v.92l-.41.24-.7-1.22-124,71.59-10.54,6.09-1.38.78c-1.87,1.07-3.79,2.17-5.6,3.44l-.39.28c-1.34.95-2.06,1.37-2.79,1.37a2.22,2.22,0,0,1-1.12-.34,4.8,4.8,0,0,1-1.88-2.74c-.07-.24-.13-.47-.18-.71a12.78,12.78,0,0,1-.31-2.63c0-3.22,1.15-6.53,3.78-8,.31-.18,134.6-77.7,145.54-84v1.07L158.46,514.06C156.28,515.33,155.23,518,155.15,520.75Z"/><path class="cls-23" d="M161.09,515.47c1.83-1.06,3.32-.21,3.32,1.9a7.29,7.29,0,0,1-3.3,5.73c-1.83,1.06-3.32.2-3.33-1.91A7.28,7.28,0,0,1,161.09,515.47Z"/><path class="cls-24" d="M189.16,498.34c1.94-1.12,3.51-.22,3.52,2a7.69,7.69,0,0,1-3.49,6.06c-1.94,1.12-3.51.21-3.52-2A7.72,7.72,0,0,1,189.16,498.34Z"/><path class="cls-25" d="M219.55,481.44c1.78-1,3.22-.2,3.23,1.84a7.1,7.1,0,0,1-3.21,5.57c-1.78,1-3.22.19-3.23-1.85A7.08,7.08,0,0,1,219.55,481.44Z"/><path class="cls-26" d="M251.34,463c1.91-1.11,3.47-.22,3.48,2a7.64,7.64,0,0,1-3.46,6c-1.92,1.11-3.47.21-3.48-2A7.62,7.62,0,0,1,251.34,463Z"/><path class="cls-27" d="M283.82,444.32c1.77-1,3.21-.2,3.22,1.83a7.07,7.07,0,0,1-3.2,5.55c-1.77,1-3.21.19-3.21-1.84A7,7,0,0,1,283.82,444.32Z"/><line class="cls-28" x1="129.03" y1="471.45" x2="157.7" y2="489.29"/><line class="cls-28" x1="153.68" y1="458.07" x2="182.36" y2="475.91"/><line class="cls-28" x1="178.34" y1="443.85" x2="207.02" y2="461.69"/><line class="cls-28" x1="202" y1="430.17" x2="230.68" y2="448.01"/><line class="cls-28" x1="226.14" y1="417.83" x2="254.82" y2="435.67"/><polygon class="cls-29" points="187.07 367.29 237.27 396.28 237.1 455.43 186.91 426.45 187.07 367.29"/><polygon class="cls-30" points="137.2 396.28 187.07 367.29 186.91 426.45 137.03 455.43 137.2 396.28"/><path class="cls-31" d="M194.3,339.5c0-.08,0-.16,0-.25s0-.25.05-.37a2,2,0,0,1,0-.26,3.23,3.23,0,0,1,.06-.33c0-.1,0-.2.05-.3s0-.19.07-.29l.09-.33c0-.09,0-.17.07-.26s.09-.26.13-.38.05-.14.07-.21.17-.42.27-.62a4.73,4.73,0,0,1,.23-.45.17.17,0,0,0,0-.05l.23-.37a5.66,5.66,0,0,1,.4-.56l.1-.12a4.58,4.58,0,0,1,.42-.46l0,0c.16-.15.33-.29.5-.43l.12-.09a5.07,5.07,0,0,1,.54-.36L192,336.33a5.07,5.07,0,0,0-.54.36l-.12.09a5,5,0,0,0-.5.43l0,0a4.69,4.69,0,0,0-.42.47l-.1.12c-.14.18-.28.36-.4.55v0a3.35,3.35,0,0,0-.21.36l0,0c-.08.15-.16.29-.23.44v0c-.1.2-.18.4-.27.62,0,0,0,0,0,.05s0,.11-.05.16-.09.25-.13.38l0,.11a.83.83,0,0,0,0,.15l-.09.33,0,.14c0,.05,0,.1,0,.15s0,.2-.05.29a.76.76,0,0,0,0,.16l0,.18a2,2,0,0,0,0,.26.68.68,0,0,0,0,.14l0,.23a2.11,2.11,0,0,1,0,.25s0,.07,0,.11,0,.22,0,.34a1.09,1.09,0,0,0,0,.18v.05c0,.19,0,.39,0,.59v0l-.13,46.6,5.78-3.35.13-46.6c0-.23,0-.46,0-.67s0-.13,0-.19A3.4,3.4,0,0,1,194.3,339.5Z"/><polygon class="cls-32" points="210.46 345.92 204.68 349.28 212.36 353.72 218.14 350.36 210.46 345.92"/><path class="cls-33" d="M227.1,355.53l-.09-.61c0-.09,0-.19,0-.29s-.05-.33-.08-.49,0-.18,0-.28-.05-.23-.07-.35-.07-.33-.1-.5,0-.16,0-.24l-.09-.39-.12-.51c0-.06,0-.13-.05-.19s-.07-.29-.11-.43-.09-.35-.14-.52a1.36,1.36,0,0,0,0-.17c0-.15-.09-.31-.14-.46s-.09-.34-.14-.51a.65.65,0,0,1,0-.13c-.06-.18-.11-.35-.17-.52l-.15-.48,0-.09-.24-.68-.12-.34v0l-.39-1.05h0c0-.06-.05-.11-.07-.17-.11-.27-.21-.55-.33-.82l0-.1-.16-.37c-.08-.18-.15-.36-.23-.53a1.42,1.42,0,0,0-.08-.18c-.06-.15-.13-.3-.2-.45s-.12-.27-.19-.4a2.4,2.4,0,0,0-.11-.23l-.25-.52c-.05-.11-.11-.22-.16-.34l-.12-.22-.33-.65-.17-.33-.07-.13c-.28-.52-.57-1-.87-1.55a.93.93,0,0,1-.05-.1l-.16-.26-.54-.89-.26-.42-.58-.89-.16-.25-.05-.07c-.37-.54-.75-1.08-1.13-1.61l-.11-.15-.14-.18-.57-.74-.2-.27-.09-.11-.46-.57c-.09-.11-.18-.23-.28-.34l-.06-.08-.39-.45c-.11-.13-.22-.27-.34-.4l-.07-.08-.41-.45-.34-.38-.08-.08-.43-.45-.34-.36-.07-.07-.49-.48-.33-.33-.06-.05-.53-.5-.32-.3,0,0-.6-.52-.29-.25,0,0-.56-.46-.34-.28h0l-.46-.35-.45-.34v0l-.28-.19-.61-.43,0,0-.33-.21-.53-.35-.06,0c-.12-.08-.24-.14-.35-.22l-.47-.28-.2-.12-.67-.37-.25-.13-.34-.18L205,323c-.14-.08-.29-.14-.43-.21l-.3-.14-.12-.05-.83-.36h0l-.81-.3-.11,0-.3-.1-.42-.14-.22-.06-.37-.1-.28-.08-.3-.06-.37-.09-.19,0-.35-.06-.42-.07-.14,0-.36,0-.45,0h-.43l-.54,0h-.14l-.59,0h-.08l-.42,0-.28,0-.2,0c-.25,0-.49.07-.73.12h0l-.21,0a5.45,5.45,0,0,0-.58.14l-.29.09-.37.11-.09,0-.56.23-.26.11c-.27.13-.53.26-.79.41l-5.78,3.36c.26-.15.52-.28.79-.41l.27-.11.55-.23c.15-.06.31-.1.46-.15s.19-.07.29-.09.38-.1.58-.15l.21-.05c.24-.05.5-.09.75-.12l.2,0,.7-.07h.08c.24,0,.49,0,.73,0H192l.43,0,.45,0,.5.06.42.07.54.1.37.08.58.15.37.1.64.2.3.1c.3.1.61.21.91.33l0,0,1,.41.29.14.69.34.34.18c.31.16.61.32.92.5l.67.4.35.22.6.39.32.21.64.46.28.19.45.35c.16.12.32.23.47.36l.36.28.56.47.32.27.59.52.37.34.53.49.39.38c.16.17.33.32.49.49l.41.43.43.45c.15.15.28.31.42.46l.41.45.41.48.39.45.35.43.46.56.28.38c.2.24.38.49.57.74l.25.33c.38.53.76,1.06,1.13,1.61l.21.32.58.89.26.42.54.89.21.36c.3.51.59,1,.87,1.55l.24.46.33.64c.1.19.19.38.28.57l.26.52c.09.21.19.42.29.63s.14.3.2.45.21.47.31.7.11.25.16.38l.38.93.06.15c.14.37.28.74.41,1.11l.12.34.27.77.15.47.21.66c.05.17.1.34.14.5s.13.43.19.64.09.34.13.52.11.41.16.62l.12.51c0,.21.09.42.14.63s.07.33.1.5l.12.63c0,.16.06.32.08.48s.1.61.14.91h0l8.59,5-12.69,17.82,5.78-3.36,12.69-17.82Z"/><path class="cls-34" d="M221.32,358.89l8.59,5-12.69,17.82-12.54-32.39,7.68,4.44c-1.55-6.59-6.17-13.4-11.63-16.55-6.75-3.89-12.25-.75-12.27,7l-.13,46.6-8.73-5,.13-46.6c0-13.28,9.47-18.65,21-12C211.05,333.09,219.61,346.62,221.32,358.89Z"/><polygon class="cls-35" points="144.98 358.37 139.17 361.71 147.7 366.7 153.51 363.36 144.98 358.37"/><path class="cls-36" d="M162.6,368.1c.05-.14.11-.27.16-.4l.16-.32a1,1,0,0,1,.07-.15c.09-.16.18-.33.28-.48v0l0,0c.12-.19.26-.38.4-.56l.14-.16a3.81,3.81,0,0,1,.33-.36l.17-.17c.11-.11.24-.21.36-.31l.16-.13c.18-.13.37-.26.56-.37h0L159.61,368a4.17,4.17,0,0,0-.56.37l-.17.13-.36.31-.17.17c-.11.11-.22.23-.32.35l-.15.17c-.14.18-.27.36-.4.56v0h0l0,0a5.46,5.46,0,0,0-.27.48l-.08.15a.8.8,0,0,0-.08.16,1.11,1.11,0,0,0-.07.16c-.06.13-.11.26-.17.4l-.06.14c0,.11-.08.22-.11.32l7.64,4.47-12.61,17.78,5.81-3.34L170.06,373l-7.64-4.46Z"/><path class="cls-37" d="M194.82,390.83c0-.06,0-.13,0-.19s0-.26,0-.38,0-.29,0-.44l0-.36,0-.4c0-.08,0-.17,0-.25s0-.41-.07-.62l0-.31s0-.06,0-.09c-.05-.35-.09-.7-.15-1.05v-.05l0-.22c0-.26-.09-.52-.14-.79a1.16,1.16,0,0,0,0-.18c0-.14-.05-.28-.08-.43s-.06-.32-.1-.48-.05-.21-.07-.31-.07-.3-.11-.46,0-.21-.07-.32l-.12-.46-.12-.45a1.33,1.33,0,0,0,0-.19c-.06-.23-.13-.46-.2-.69l-.09-.34,0-.07c-.1-.36-.22-.72-.34-1.08v-.05l-.09-.26-.26-.75a1.67,1.67,0,0,0-.08-.2c0-.13-.09-.25-.14-.38l-.15-.42-.17-.42-.15-.37c0-.07-.05-.15-.08-.22l-.34-.81s0-.09-.07-.14v0c-.14-.33-.29-.66-.44-1l-.06-.14c-.07-.14-.13-.28-.2-.41s-.17-.36-.25-.53l-.12-.24-.26-.51c-.06-.13-.13-.26-.2-.39l-.12-.23c-.18-.35-.37-.69-.57-1-.05-.1-.1-.2-.16-.3l-.05-.09c-.31-.54-.63-1.08-.95-1.61-.08-.12-.16-.24-.23-.36-.29-.46-.59-.91-.89-1.36l-.13-.2-.06-.09c-.32-.46-.64-.92-1-1.38a.22.22,0,0,1-.05-.08l-.33-.42c-.15-.21-.31-.41-.47-.62a1,1,0,0,1-.08-.11l-.47-.58-.27-.34-.05-.05-.78-.93h0A.69.69,0,0,0,183,363l-.67-.75-.08-.08-.33-.35-.44-.46-.13-.13-.38-.38-.36-.36-.18-.17L180,360c-.1-.1-.2-.2-.31-.29l-.22-.2-.42-.37-.28-.24-.27-.23-.42-.35-.23-.18-.35-.28-.39-.3-.17-.13-.48-.34-.33-.24-.09-.06c-.29-.21-.59-.4-.88-.59h0l0,0-.83-.52-.2-.12-.66-.37-.25-.13-.34-.18-.26-.13-.42-.2-.29-.15-.13,0-.81-.36h0c-.28-.12-.56-.22-.83-.32l-.11,0-.3-.1-.43-.14-.21-.06-.35-.1-.29-.08-.28-.06-.39-.09-.2-.05-.34-.05-.39-.07-.16,0-.33,0-.46,0-.14,0h-.28l-.55,0h-.38l-.64,0h-.21l-.25,0-.2,0c-.25,0-.5.06-.74.11h0l-.14,0c-.21,0-.43.09-.64.15l-.26.09c-.14,0-.27.07-.4.12l-.08,0-.54.22-.27.11a8,8,0,0,0-.77.4l-5.82,3.34a8.2,8.2,0,0,1,.78-.4l.26-.11a5.25,5.25,0,0,1,.55-.22l.47-.16.27-.08.64-.16a.7.7,0,0,0,.14,0l.75-.12.21,0,.45,0,.64,0H159l.55,0,.42,0,.46,0,.49.07.4.06.54.11.38.08.57.15.36.1.63.2.31.1.94.36h0l.94.41.3.14.68.34.34.18c.3.16.6.32.9.5s.69.41,1,.63l.05,0c.33.21.65.43,1,.66l.34.24.64.47.39.3.58.46.42.35.55.46.43.38.53.49.42.39.54.53.38.38c.19.19.38.39.56.59l.34.35.75.83.11.12c.28.33.57.66.84,1,.1.11.19.23.28.34l.55.69c.16.2.31.41.47.62l.38.5c.33.46.66.92,1,1.38l.19.29c.31.44.6.9.89,1.36l.23.36c.33.53.65,1.07.95,1.61.08.13.15.26.22.39l.57,1,.32.62.25.5c.13.26.25.52.38.77l.19.42c.18.38.35.76.52,1.15l.06.14c.15.34.29.68.43,1l.15.37c.11.28.22.56.32.84l.14.38.33.95.09.26c.13.4.26.8.38,1.2a3.37,3.37,0,0,1,.1.34c.08.29.17.58.25.88,0,.15.08.3.11.44s.14.53.2.79.07.31.1.46.12.53.17.79l.09.43c.06.32.12.65.17,1,0,.08,0,.15,0,.22.06.4.12.79.16,1.19a2.91,2.91,0,0,1,0,.31l.09.87,0,.4c0,.26,0,.53,0,.79s0,.26,0,.39c0,.37,0,.74,0,1.11l-.13,46.6,5.82-3.33.13-46.6C194.83,391.45,194.83,391.14,194.82,390.83Z"/><path class="cls-38" d="M147.7,366.7c1.77-10.25,10.32-13.84,20.55-7.86,11.49,6.71,20.8,23,20.76,36.25l-.13,46.6-8.67-5.07.13-46.6c0-7.74-5.41-17.24-12.11-21.15-5.43-3.17-10-1.73-11.62,3l7.64,4.47-12.61,17.78-12.47-32.44Z"/><polygon class="cls-39" points="237.27 396.28 237.1 455.43 187.23 484.41 187.4 425.26 237.27 396.28"/><polygon class="cls-40" points="187.4 425.26 187.23 484.41 137.03 455.43 137.2 396.28 187.4 425.26"/><polyline class="cls-20" points="187.4 425.26 173.9 444.77 121.26 413.09 137.2 396.28"/><polygon class="cls-20" points="237.27 396.28 250.09 413.69 200.22 444.77 187.4 425.26 237.27 396.28"/><path class="cls-41" d="M346.43,184.85l-73.28,42.31a10.54,10.54,0,0,0,0,18.25l58.9,34a39.32,39.32,0,0,0,39.31,0l58.9-34a10.54,10.54,0,0,0,0-18.25L357,184.85A10.55,10.55,0,0,0,346.43,184.85Z"/><path class="cls-42" d="M346.43,181.11l-73.28,42.31a10.54,10.54,0,0,0,0,18.25l58.9,34a39.3,39.3,0,0,0,39.31,0l58.9-34a10.54,10.54,0,0,0,0-18.25L357,181.11A10.51,10.51,0,0,0,346.43,181.11Z"/><path class="cls-43" d="M435.37,230.81V54.66h0a10.47,10.47,0,0,0-5.1-10.94L357,1.41a10.55,10.55,0,0,0-10.54,0L273.16,43.72a10.44,10.44,0,0,0-5,6.91h-.25v183.8h.19a10.37,10.37,0,0,0,5.08,7.25l58.9,34a39.3,39.3,0,0,0,39.31,0l58.89-34a10.41,10.41,0,0,0,5.09-7.25h0v-.15A10.57,10.57,0,0,0,435.37,230.81Z"/></g></g></svg>